<svg width="45" height="45" xmlns="http://www.w3.org/2000/svg">
 <metadata id="metadata8">image/svg+xml</metadata>

 <g>
  <title>background</title>
  <rect fill="none" id="canvas_background" height="47" width="47" y="-1" x="-1"/>
 </g>
 <g>
  <title>Layer 1</title>
  <g id="g10" transform="matrix(1.3333333,0,0,-1.3333333,0,666.65333) ">
   <g id="g12" transform="translate(0.18001556396484375,0) scale(0.10000000149011612) ">
    <path fill="#1b1817" fill-rule="evenodd" d="m168.579886,4992.400283c-89.94,0 -162.88,-72.93 -162.88,-162.9c0,-71.96 46.67,-133.02 111.4,-154.57c8.15,-1.49 11.12,3.54 11.12,7.86c0,3.87 -0.14,14.11 -0.22,27.7c-45.31,-9.84 -54.87,21.84 -54.87,21.84c-7.41,18.82 -18.09,23.83 -18.09,23.83c-14.79,10.1 1.12,9.9 1.12,9.9c16.35,-1.15 24.95,-16.79 24.95,-16.79c14.53,-24.89 38.13,-17.7 47.41,-13.53c1.48,10.52 5.69,17.7 10.34,21.77c-36.17,4.12 -74.2,18.09 -74.2,80.51c0,17.79 6.35,32.32 16.77,43.71c-1.68,4.12 -7.27,20.68 1.6,43.11c0,0 13.67,4.38 44.79,-16.69c12.99,3.61 26.93,5.41 40.78,5.48c13.84,-0.07 27.77,-1.87 40.78,-5.48c31.1,21.07 44.75,16.69 44.75,16.69c8.89,-22.43 3.3,-38.99 1.63,-43.11c10.44,-11.39 16.74,-25.92 16.74,-43.71c0,-62.58 -38.09,-76.35 -74.37,-80.38c5.84,-5.03 11.05,-14.97 11.05,-30.17c0,-21.77 -0.2,-39.34 -0.2,-44.68c0,-4.36 2.94,-9.43 11.2,-7.84c64.68,21.59 111.31,82.6 111.31,154.55c0,89.97 -72.94,162.9 -162.91,162.9" id="path16"/>
   </g>
  </g>
 </g>
</svg>